<svg xmlns="http://www.w3.org/2000/svg" width="46.000000pt" height="81.000000pt" viewBox="0 0 46.000000 81.000000" preserveAspectRatio="xMidYMid meet"><metadata>
Created by potrace 1.15, written by Peter Selinger 2001-2017
</metadata><g transform="translate(0.000000,81.000000) scale(0.100000,-0.100000)" fill="#000000" stroke="none"><path d="M182 783 c-31 -45 -42 -91 -52 -218 -8 -97 -22 -162 -70 -334 -33 -118 -60 -219 -60 -223 0 -4 63 -8 141 -8 129 0 140 1 135 18 -29 91 -118 422 -122 456 -9 62 13 216 35 246 27 37 51 35 100 -6 l44 -38 -22 -17 -22 -18 37 -55 c20 -31 39 -56 42 -56 11 0 92 56 92 63 0 7 -49 84 -67 106 -1 2 -13 -1 -26 -6 -21 -10 -26 -8 -42 19 -32 55 -76 98 -100 98 -14 0 -31 -11 -43 -27z"></path></g></svg>